<mxfile host="app.diagrams.net" modified="2022-05-08T05:14:22.135Z" agent="5.0 (X11)" etag="gUuB39MdzzhVPLZP4T3N" version="17.5.0" type="github">
  <diagram id="C5RBs43oDa-KdzZeNtuy" name="Page-1">
    <mxGraphModel dx="1509" dy="933" grid="1" gridSize="10" guides="1" tooltips="1" connect="1" arrows="1" fold="1" page="1" pageScale="1" pageWidth="827" pageHeight="1169" math="0" shadow="0">
      <root>
        <mxCell id="WIyWlLk6GJQsqaUBKTNV-0" />
        <mxCell id="WIyWlLk6GJQsqaUBKTNV-1" parent="WIyWlLk6GJQsqaUBKTNV-0" />
        <mxCell id="WIyWlLk6GJQsqaUBKTNV-3" value="UNDER_REVIEW_BY_ENGINEER" style="rounded=1;whiteSpace=wrap;html=1;fontSize=12;glass=0;strokeWidth=1;shadow=0;" parent="WIyWlLk6GJQsqaUBKTNV-1" vertex="1">
          <mxGeometry x="474" y="219" width="230" height="40" as="geometry" />
        </mxCell>
        <mxCell id="JgxWEJT44fN96b15lo7z-0" value="Задача выбрана инженером и находится на проверке. Инженер должен проверить полноту и корректность исходных данных, и либо самостоятельно добавить недостающее, либо передать задачу на рассмотрение руководителю проектного отдела" style="text;html=1;strokeColor=none;fillColor=none;align=center;verticalAlign=middle;whiteSpace=wrap;rounded=0;" vertex="1" parent="WIyWlLk6GJQsqaUBKTNV-1">
          <mxGeometry x="849" y="224" width="320" height="30" as="geometry" />
        </mxCell>
        <mxCell id="JgxWEJT44fN96b15lo7z-1" value="" style="rounded=0;html=1;jettySize=auto;orthogonalLoop=1;fontSize=11;endArrow=block;endFill=0;endSize=8;strokeWidth=1;shadow=0;labelBackgroundColor=none;edgeStyle=orthogonalEdgeStyle;" edge="1" parent="WIyWlLk6GJQsqaUBKTNV-1" source="JgxWEJT44fN96b15lo7z-2">
          <mxGeometry relative="1" as="geometry">
            <mxPoint x="589" y="219" as="targetPoint" />
          </mxGeometry>
        </mxCell>
        <mxCell id="JgxWEJT44fN96b15lo7z-2" value="IN_HEAP" style="rounded=1;whiteSpace=wrap;html=1;fontSize=12;glass=0;strokeWidth=1;shadow=0;" vertex="1" parent="WIyWlLk6GJQsqaUBKTNV-1">
          <mxGeometry x="529" y="129" width="120" height="40" as="geometry" />
        </mxCell>
        <mxCell id="JgxWEJT44fN96b15lo7z-3" value="Задача создана клиентом и находится в общей куче. Ее должен взять инженер" style="text;html=1;strokeColor=none;fillColor=none;align=center;verticalAlign=middle;whiteSpace=wrap;rounded=0;" vertex="1" parent="WIyWlLk6GJQsqaUBKTNV-1">
          <mxGeometry x="849" y="134" width="320" height="30" as="geometry" />
        </mxCell>
        <mxCell id="JgxWEJT44fN96b15lo7z-4" value="UNDER_REVIEW_BY_HEAD_OF_DESIGN_DEPARTMENT" style="rounded=1;whiteSpace=wrap;html=1;fontSize=12;glass=0;strokeWidth=1;shadow=0;" vertex="1" parent="WIyWlLk6GJQsqaUBKTNV-1">
          <mxGeometry x="409" y="309" width="360" height="40" as="geometry" />
        </mxCell>
        <mxCell id="JgxWEJT44fN96b15lo7z-5" value="" style="rounded=0;html=1;jettySize=auto;orthogonalLoop=1;fontSize=11;endArrow=block;endFill=0;endSize=8;strokeWidth=1;shadow=0;labelBackgroundColor=none;edgeStyle=orthogonalEdgeStyle;" edge="1" parent="WIyWlLk6GJQsqaUBKTNV-1">
          <mxGeometry relative="1" as="geometry">
            <mxPoint x="589" y="309" as="targetPoint" />
            <mxPoint x="589" y="259" as="sourcePoint" />
          </mxGeometry>
        </mxCell>
        <mxCell id="JgxWEJT44fN96b15lo7z-7" value="Задача находится на первоначальной проверке у руководителя проектного отдела. Она должна быть либо возвращена инженеру на доработку, либо перемещена в очередь работ с присвоением ей сроков выполнения и сложности" style="text;html=1;strokeColor=none;fillColor=none;align=center;verticalAlign=middle;whiteSpace=wrap;rounded=0;" vertex="1" parent="WIyWlLk6GJQsqaUBKTNV-1">
          <mxGeometry x="849" y="314" width="320" height="30" as="geometry" />
        </mxCell>
        <mxCell id="JgxWEJT44fN96b15lo7z-14" value="" style="rounded=0;html=1;jettySize=auto;orthogonalLoop=1;fontSize=11;endArrow=block;endFill=0;endSize=8;strokeWidth=1;shadow=0;labelBackgroundColor=none;edgeStyle=orthogonalEdgeStyle;" edge="1" parent="WIyWlLk6GJQsqaUBKTNV-1">
          <mxGeometry relative="1" as="geometry">
            <mxPoint x="588.5" y="399" as="targetPoint" />
            <mxPoint x="588.5" y="349" as="sourcePoint" />
          </mxGeometry>
        </mxCell>
        <mxCell id="JgxWEJT44fN96b15lo7z-15" value="Yes" style="rounded=0;html=1;jettySize=auto;orthogonalLoop=1;fontSize=11;endArrow=block;endFill=0;endSize=8;strokeWidth=1;shadow=0;labelBackgroundColor=none;edgeStyle=orthogonalEdgeStyle;entryX=0.5;entryY=0;entryDx=0;entryDy=0;" edge="1" parent="WIyWlLk6GJQsqaUBKTNV-1" source="JgxWEJT44fN96b15lo7z-17" target="JgxWEJT44fN96b15lo7z-19">
          <mxGeometry y="20" relative="1" as="geometry">
            <mxPoint as="offset" />
            <mxPoint x="589" y="520" as="targetPoint" />
          </mxGeometry>
        </mxCell>
        <mxCell id="JgxWEJT44fN96b15lo7z-16" value="No" style="edgeStyle=orthogonalEdgeStyle;rounded=0;html=1;jettySize=auto;orthogonalLoop=1;fontSize=11;endArrow=block;endFill=0;endSize=8;strokeWidth=1;shadow=0;labelBackgroundColor=none;entryX=1;entryY=0.5;entryDx=0;entryDy=0;" edge="1" parent="WIyWlLk6GJQsqaUBKTNV-1" source="JgxWEJT44fN96b15lo7z-17" target="WIyWlLk6GJQsqaUBKTNV-3">
          <mxGeometry y="10" relative="1" as="geometry">
            <mxPoint as="offset" />
            <mxPoint x="819" y="240" as="targetPoint" />
            <Array as="points">
              <mxPoint x="799" y="440" />
              <mxPoint x="799" y="239" />
            </Array>
          </mxGeometry>
        </mxCell>
        <mxCell id="JgxWEJT44fN96b15lo7z-17" value="Исходные данные в норме?" style="rhombus;whiteSpace=wrap;html=1;shadow=0;fontFamily=Helvetica;fontSize=12;align=center;strokeWidth=1;spacing=6;spacingTop=-4;" vertex="1" parent="WIyWlLk6GJQsqaUBKTNV-1">
          <mxGeometry x="449" y="400" width="280" height="80" as="geometry" />
        </mxCell>
        <mxCell id="JgxWEJT44fN96b15lo7z-19" value="IN_QUEUE" style="rounded=1;whiteSpace=wrap;html=1;fontSize=12;glass=0;strokeWidth=1;shadow=0;" vertex="1" parent="WIyWlLk6GJQsqaUBKTNV-1">
          <mxGeometry x="529" y="530" width="120" height="40" as="geometry" />
        </mxCell>
        <mxCell id="JgxWEJT44fN96b15lo7z-20" value="Задача находится в очереди. Ей еще не назначен исполнитель. Проектировщики получают доступ к очереди задач и могут запрашивать у руководителя возможность взять конкретную задачу в работу" style="text;html=1;strokeColor=none;fillColor=none;align=center;verticalAlign=middle;whiteSpace=wrap;rounded=0;" vertex="1" parent="WIyWlLk6GJQsqaUBKTNV-1">
          <mxGeometry x="849" y="535" width="320" height="30" as="geometry" />
        </mxCell>
        <mxCell id="JgxWEJT44fN96b15lo7z-22" value="" style="rounded=0;html=1;jettySize=auto;orthogonalLoop=1;fontSize=11;endArrow=block;endFill=0;endSize=8;strokeWidth=1;shadow=0;labelBackgroundColor=none;edgeStyle=orthogonalEdgeStyle;" edge="1" parent="WIyWlLk6GJQsqaUBKTNV-1">
          <mxGeometry relative="1" as="geometry">
            <mxPoint x="588.5" y="620" as="targetPoint" />
            <mxPoint x="588.5" y="570" as="sourcePoint" />
          </mxGeometry>
        </mxCell>
        <mxCell id="JgxWEJT44fN96b15lo7z-23" value="Yes" style="rounded=0;html=1;jettySize=auto;orthogonalLoop=1;fontSize=11;endArrow=block;endFill=0;endSize=8;strokeWidth=1;shadow=0;labelBackgroundColor=none;edgeStyle=orthogonalEdgeStyle;entryX=0.5;entryY=0;entryDx=0;entryDy=0;" edge="1" parent="WIyWlLk6GJQsqaUBKTNV-1" source="JgxWEJT44fN96b15lo7z-25" target="JgxWEJT44fN96b15lo7z-26">
          <mxGeometry y="20" relative="1" as="geometry">
            <mxPoint as="offset" />
            <mxPoint x="589" y="832" as="targetPoint" />
          </mxGeometry>
        </mxCell>
        <mxCell id="JgxWEJT44fN96b15lo7z-24" value="No" style="edgeStyle=orthogonalEdgeStyle;rounded=0;html=1;jettySize=auto;orthogonalLoop=1;fontSize=11;endArrow=block;endFill=0;endSize=8;strokeWidth=1;shadow=0;labelBackgroundColor=none;entryX=0;entryY=0.5;entryDx=0;entryDy=0;" edge="1" parent="WIyWlLk6GJQsqaUBKTNV-1" source="JgxWEJT44fN96b15lo7z-25" target="JgxWEJT44fN96b15lo7z-19">
          <mxGeometry y="10" relative="1" as="geometry">
            <mxPoint as="offset" />
            <mxPoint x="409" y="420" as="targetPoint" />
            <Array as="points">
              <mxPoint x="330" y="752" />
              <mxPoint x="330" y="550" />
            </Array>
          </mxGeometry>
        </mxCell>
        <mxCell id="JgxWEJT44fN96b15lo7z-25" value="&lt;div&gt;Выбор исполнителя задачи подтвержден его руководителем?&lt;/div&gt;" style="rhombus;whiteSpace=wrap;html=1;shadow=0;fontFamily=Helvetica;fontSize=12;align=center;strokeWidth=1;spacing=6;spacingTop=-4;" vertex="1" parent="WIyWlLk6GJQsqaUBKTNV-1">
          <mxGeometry x="449" y="712" width="280" height="80" as="geometry" />
        </mxCell>
        <mxCell id="JgxWEJT44fN96b15lo7z-26" value="ASSIGNED_TO_PERFORMER" style="rounded=1;whiteSpace=wrap;html=1;fontSize=12;glass=0;strokeWidth=1;shadow=0;" vertex="1" parent="WIyWlLk6GJQsqaUBKTNV-1">
          <mxGeometry x="480" y="842" width="220" height="40" as="geometry" />
        </mxCell>
        <mxCell id="JgxWEJT44fN96b15lo7z-27" value="CHOSEN_BY_DESIGNER" style="rounded=1;whiteSpace=wrap;html=1;fontSize=12;glass=0;strokeWidth=1;shadow=0;" vertex="1" parent="WIyWlLk6GJQsqaUBKTNV-1">
          <mxGeometry x="480" y="620" width="220" height="40" as="geometry" />
        </mxCell>
        <mxCell id="JgxWEJT44fN96b15lo7z-28" value="" style="rounded=0;html=1;jettySize=auto;orthogonalLoop=1;fontSize=11;endArrow=block;endFill=0;endSize=8;strokeWidth=1;shadow=0;labelBackgroundColor=none;edgeStyle=orthogonalEdgeStyle;" edge="1" parent="WIyWlLk6GJQsqaUBKTNV-1">
          <mxGeometry relative="1" as="geometry">
            <mxPoint x="588.5" y="710" as="targetPoint" />
            <mxPoint x="588.5" y="660" as="sourcePoint" />
          </mxGeometry>
        </mxCell>
        <mxCell id="JgxWEJT44fN96b15lo7z-29" value="Руководитель проектного отдела оценивает сроки выполнения, сложность задачи, предложенные исполнителем. Если его не устраивает исполнитель, возвращает задачу в очередь. Если устраивает исполнитель, он может внести корректировки в сроки и сложность задачи и передать на исполнение ему" style="text;html=1;strokeColor=none;fillColor=none;align=center;verticalAlign=middle;whiteSpace=wrap;rounded=0;" vertex="1" parent="WIyWlLk6GJQsqaUBKTNV-1">
          <mxGeometry x="849" y="737" width="320" height="30" as="geometry" />
        </mxCell>
        <mxCell id="JgxWEJT44fN96b15lo7z-30" value="Потенциальный исполнитель выбрал задачу. На данном этапе проектировщик может предложить свои сроки выполнения, а также свою сложность заявки. Все это отправляется на согласование руководителю" style="text;html=1;strokeColor=none;fillColor=none;align=center;verticalAlign=middle;whiteSpace=wrap;rounded=0;" vertex="1" parent="WIyWlLk6GJQsqaUBKTNV-1">
          <mxGeometry x="849" y="625" width="320" height="30" as="geometry" />
        </mxCell>
        <mxCell id="JgxWEJT44fN96b15lo7z-33" value="Задача находится в личной очереди выполнения проектировщика" style="text;html=1;strokeColor=none;fillColor=none;align=center;verticalAlign=middle;whiteSpace=wrap;rounded=0;" vertex="1" parent="WIyWlLk6GJQsqaUBKTNV-1">
          <mxGeometry x="849" y="847" width="320" height="30" as="geometry" />
        </mxCell>
      </root>
    </mxGraphModel>
  </diagram>
</mxfile>
